<svg width="206" height="262" viewBox="0 0 706 262" fill="none" xmlns="http://www.w3.org/2000/svg">
<rect width="706" height="262" fill="#FEFFE4"/>
<rect x="23" y="19" width="659" height="224" rx="28" fill="#C4C4C4" fill-opacity="0.36"/>
<rect x="21.5" y="17.5" width="662" height="227" rx="29.5" stroke="black" stroke-opacity="0.38" stroke-width="3" stroke-linejoin="bevel" stroke-dasharray="10 10"/>
<path d="M384.076 172.475H365.65H360.689H359.617V147.76H367.7C369.75 147.76 370.961 145.431 369.75 143.753L354.027 121.997C353.025 120.599 350.952 120.599 349.95 121.997L334.227 143.753C333.016 145.431 334.204 147.76 336.277 147.76H344.36V172.475H343.288H338.327H316.966C304.737 171.799 295 160.362 295 147.97C295 139.421 299.635 131.967 306.507 127.937C305.878 126.236 305.552 124.42 305.552 122.509C305.552 113.774 312.61 106.716 321.345 106.716C323.232 106.716 325.049 107.042 326.749 107.671C331.804 96.9561 342.706 89.5253 355.378 89.5253C371.776 89.5486 385.287 102.104 386.824 118.107C399.426 120.273 409 131.943 409 145.151C409 159.267 398.005 171.496 384.076 172.475Z" fill="black" fill-opacity="0.09"/>
</svg>
